<?xml version="1.0" standalone="no"?>
<!DOCTYPE svg PUBLIC "-//W3C//DTD SVG 1.1//EN" "http://www.w3.org/Graphics/SVG/1.1/DTD/svg11.dtd" >
<svg xmlns="http://www.w3.org/2000/svg" xmlns:xlink="http://www.w3.org/1999/xlink" version="1.1">
<metadata>
Created by FontForge 20161003 at Sun Aug  4 03:10:36 2019
 By www-data
Typeface (c) JK Typeface. 2019. All Rights Reserved
</metadata>
<defs>
<font id="SYFYFantasy" horiz-adv-x="925" >
  <font-face 
    font-family="SYFYFantasy"
    font-weight="500"
    font-stretch="normal"
    units-per-em="1000"
    panose-1="0 0 0 0 0 0 0 0 0 0"
    ascent="800"
    descent="-200"
    x-height="875"
    cap-height="875"
    bbox="0 -223 1640 1200"
    underline-thickness="50"
    underline-position="-175"
    unicode-range="U+0020-201D"
  />
<missing-glyph horiz-adv-x="650" 
 />
    <glyph glyph-name=".notdef" horiz-adv-x="650" 
 />
    <glyph glyph-name="glyph1" horiz-adv-x="462" 
 />
    <glyph glyph-name="nonmarkingreturn" horiz-adv-x="333" 
 />
    <glyph glyph-name="space" unicode=" " horiz-adv-x="462" 
 />
    <glyph glyph-name="exclam" unicode="!" horiz-adv-x="269" 
d="M253 875q7 0 11.5 -5t4.5 -11v-499q0 -7 -4.5 -11.5t-11.5 -4.5h-187q-7 0 -11.5 4.5t-4.5 11.5v499q0 6 4.5 11t11.5 5h187zM253 219q7 0 11.5 -4.5t4.5 -11.5v-187q0 -7 -4.5 -11.5t-11.5 -4.5h-187q-7 0 -11.5 4.5t-4.5 11.5v187q0 7 4.5 11.5t11.5 4.5h187z" />
    <glyph glyph-name="quotedbl" unicode="&#x22;" horiz-adv-x="581" 
d="M565 872q7 0 11.5 -4.5t4.5 -11.5v-203v0v-138q0 -7 -4.5 -11.5t-11.5 -4.5h-187q-7 0 -11.5 4.5t-4.5 11.5v138v0v203q0 7 4.5 11.5t11.5 4.5h187zM253 872q7 0 11.5 -4.5t4.5 -11.5v-203v0v-138q0 -7 -4.5 -11.5t-11.5 -4.5h-187q-7 0 -11.5 4.5t-4.5 11.5v138v0v203
q0 7 4.5 11.5t11.5 4.5h187z" />
    <glyph glyph-name="numbersign" unicode="#" horiz-adv-x="1233" 
d="M715 363v146h-146v-146h146zM1217 508h-140v-146h140q7 0 11.5 -4.5t4.5 -10.5v-186q0 -7 -4.5 -11.5t-11.5 -4.5h-140l-145 -145h-217v145h-146v-145h-216l-145 145v0h-142q-7 0 -11.5 4.5t-4.5 11.5v186q0 7 4.5 11.5t11.5 4.5h142v146h-142q-7 0 -11.5 4.5t-4.5 10.5
v187q0 6 4.5 10.5t11.5 5.5l142 -1l145 145h216v-145h146v145h217l145 -145h140q7 0 11.5 -4.5t4.5 -11.5v-186q0 -6 -4.5 -10.5t-11.5 -5.5z" />
    <glyph glyph-name="dollar" unicode="$" 
d="M910 880q6 0 10.5 -4.5t4.5 -10.5v-188q0 -6 -4.5 -10.5t-10.5 -4.5h-420v-220h-425q-6 0 -10.5 5t-4.5 11v277l175 145h153v204q0 6 4.5 10.5t11.5 4.5h187q7 0 11.5 -4.5t4.5 -10.5v-204h313zM910 443q6 0 10.5 -4.5t4.5 -10.5v-277l-175 -146h-153v-203
q0 -6 -4.5 -10.5t-11.5 -4.5h-187q-7 0 -11.5 4.5t-4.5 10.5v203h-313q-6 0 -10.5 4.5t-4.5 11.5v188q0 6 4.5 10.5t10.5 4.5h427v219h418z" />
    <glyph glyph-name="percent" unicode="%" horiz-adv-x="1456" 
d="M585 0q-6 0 -10.5 4.5t-4.5 11.5v843q0 7 4.5 11.5t10.5 4.5h333q6 0 10.5 -4.5t4.5 -11.5v-843q0 -7 -4.5 -11.5t-10.5 -4.5h-333zM1263 117v234h-79v-234h79zM1378 468l78 -78v-382q0 -3 -2.5 -5.5t-5.5 -2.5h-382l-77 78v381q0 4 2 6.5t6 2.5h381zM325 524v234h-79
v-234h79zM440 875l78 -78v-381q0 -4 -2.5 -6.5t-6.5 -2.5h-381l-78 78v382q0 3 2.5 5.5t5.5 2.5h382z" />
    <glyph glyph-name="ampersand" unicode="&#x26;" horiz-adv-x="1077" 
d="M412 218h146v109h-146v-109zM1062 544q6 0 10.5 -4.5t4.5 -10.5v-186q0 -7 -4.5 -11.5t-10.5 -4.5h-141v-125v-129v-57q0 -7 -4.5 -11.5t-10.5 -4.5h-711l-145 145v581l145 145h711q6 0 10.5 -4.5t4.5 -10.5v-187q0 -6 -4.5 -10.5t-10.5 -4.5l-494 -1v-108z" />
    <glyph glyph-name="quotesingle" unicode="'" horiz-adv-x="269" 
d="M253 858q7 0 11.5 -4.5t4.5 -11.5v-203v0v-138q0 -7 -4.5 -11.5t-11.5 -4.5h-187q-7 0 -11.5 4.5t-4.5 11.5v138v0v203q0 7 4.5 11.5t11.5 4.5h187z" />
    <glyph glyph-name="parenleft" unicode="(" horiz-adv-x="926" 
d="M911 219q6 0 10.5 -4.5t4.5 -11.5l-1 -188q0 -6 -4.5 -10.5t-10.5 -4.5h-714l-146 146v908l146 146h714q6 0 10.5 -4.5t4.5 -11.5l1 -188q0 -6 -4.5 -10.5t-10.5 -4.5h-496v-762h496z" />
    <glyph glyph-name="parenright" unicode=")" horiz-adv-x="926" 
d="M66 219h496v762h-496q-7 0 -11.5 4.5t-4.5 10.5l1 188q0 7 4.5 11.5t11.5 4.5h713l146 -146v-908l-146 -146h-713q-7 0 -11.5 4.5t-4.5 10.5l-1 188q0 7 4.5 11.5t11.5 4.5z" />
    <glyph glyph-name="asterisk" unicode="*" horiz-adv-x="520" 
d="M408 586l105 -88q3 -3 3.5 -6.5t-1.5 -6.5l-72 -86q-3 -3 -6.5 -3.5t-6.5 2.5l-106 88l-41 35l-41 -35l-106 -88q-3 -3 -6.5 -2.5t-6.5 3.5l-72 86q-2 3 -2 6.5t3 6.5l106 88l23 20l-23 20l-106 88q-3 3 -3 6.5t2 6.5l72 86q3 3 6.5 3.5t6.5 -2.5l82 -68v106q0 4 2.5 6.5
t6.5 2.5h112q4 0 6.5 -2.5t2.5 -6.5v-106l82 68q3 3 6.5 2.5t6.5 -3.5l72 -86q2 -3 1.5 -6.5t-3.5 -6.5l-105 -88l-24 -20z" />
    <glyph glyph-name="plus" unicode="+" horiz-adv-x="907" 
d="M891 557q7 0 11.5 -4.5t4.5 -10.5v-188q0 -6 -4.5 -10.5t-11.5 -4.5h-231v-323q0 -7 -4.5 -11.5t-10.5 -4.5h-333q-6 0 -11 4.5t-5 11.5v323h-230q-7 0 -11.5 4.5t-4.5 10.5v188q0 6 4.5 10.5t11.5 4.5h230v302q0 7 5 11.5t11 4.5h333q6 0 10.5 -4.5t4.5 -11.5v-302h231z
" />
    <glyph glyph-name="comma" unicode="," horiz-adv-x="269" 
d="M50 -154v349q0 7 4.5 11.5t11.5 4.5h187q7 0 11.5 -4.5t4.5 -11.5v-203l-146 -146h-73z" />
    <glyph glyph-name="hyphen" unicode="-" horiz-adv-x="475" 
d="M475 415q0 -6 -4.5 -10.5t-11.5 -4.5h-203v0h-190q-7 0 -11.5 4.5t-4.5 10.5v84q0 6 4.5 11t11.5 5h190v-1h203q7 0 11.5 -4.5t4.5 -10.5v-84z" />
    <glyph glyph-name="period" unicode="." horiz-adv-x="269" 
d="M253 219q7 0 11.5 -4.5t4.5 -11.5v-187q0 -7 -4.5 -11.5t-11.5 -4.5h-187q-7 0 -11.5 4.5t-4.5 11.5v187q0 7 4.5 11.5t11.5 4.5h187z" />
    <glyph glyph-name="slash" unicode="/" horiz-adv-x="510" 
d="M286 841q2 7 8 11.5t12 4.5h188q6 0 9.5 -4.5t1.5 -11.5l-66 -231l-105 -364l-66 -230q-2 -7 -7.5 -11.5t-12.5 -4.5h-187q-7 0 -10 4.5t-2 11.5l67 230l104 364z" />
    <glyph glyph-name="zero" unicode="0" 
d="M564 219v437h-148v-437h148zM779 875l146 -146v-713q0 -7 -4.5 -11.5t-10.5 -4.5h-714l-146 146v714q0 6 4.5 10.5t10.5 4.5h714z" />
    <glyph glyph-name="one" unicode="1" horiz-adv-x="414" 
d="M66 0q-7 0 -11.5 4.5t-4.5 10.5v844q0 7 4.5 11.5t11.5 4.5h332q7 0 11.5 -4.5t4.5 -11.5v-844q0 -6 -4.5 -10.5t-11.5 -4.5h-332z" />
    <glyph glyph-name="two" unicode="2" 
d="M65 875h685l175 -146v-277q0 -6 -4.5 -10.5t-10.5 -4.5h-425v219h-420q-6 0 -10.5 4.5t-4.5 10.5v188q0 7 4.5 11.5t10.5 4.5zM910 -1h-684l-176 146v277q0 6 4.5 11t10.5 5h418v-220h427q6 0 10.5 -4.5t4.5 -10.5v-188q0 -6 -4.5 -11t-10.5 -5z" />
    <glyph glyph-name="three" unicode="3" horiz-adv-x="921" 
d="M776 873l145 -145v-581l-145 -145h-710q-7 0 -11.5 4.5t-4.5 11.5v186q0 7 4.5 11.5t11.5 4.5h493v109h-493q-7 0 -11.5 4.5t-4.5 11.5v186q0 6 4.5 10.5t11.5 4.5l493 1v108l-493 1q-7 0 -11.5 4.5t-4.5 10.5v187q0 6 4.5 10.5t11.5 4.5h710z" />
    <glyph glyph-name="four" unicode="4" horiz-adv-x="924" 
d="M195 366l-145 144v0v350q0 6 4.5 10.5t10.5 4.5h333q6 0 10.5 -4.5t4.5 -10.5v-277h147v277q0 6 5 10.5t11 4.5h333q6 0 10.5 -4.5t4.5 -10.5v-844q0 -7 -4.5 -11.5t-10.5 -4.5h-333q-6 0 -11 4.5t-5 11.5v349z" />
    <glyph glyph-name="five" unicode="5" 
d="M925 859v-188q0 -6 -4.5 -10.5t-10.5 -4.5h-420v-219h-425q-6 0 -10.5 4.5t-4.5 10.5v277l176 146h684q6 0 10.5 -4.5t4.5 -11.5zM50 15v188q0 6 4.5 10.5t10.5 4.5h427v220h418q6 0 10.5 -5t4.5 -11v-277l-175 -146h-685q-6 0 -10.5 5t-4.5 11z" />
    <glyph glyph-name="six" unicode="6" 
d="M562 219v109h-149v-109h149zM925 16q0 -7 -4.5 -11.5t-11.5 -4.5h-713l-146 146v583l146 146h713q7 0 11.5 -4.5t4.5 -11.5v-187q0 -7 -4.5 -11.5t-11.5 -4.5h-496v-109h496q7 0 11.5 -5t4.5 -11v-515z" />
    <glyph glyph-name="seven" unicode="7" 
d="M925 875v-859q0 -7 -4.5 -11.5t-10.5 -4.5h-333q-6 0 -10.5 4.5t-4.5 11.5v640h-149v-203q0 -6 -4.5 -10.5t-10.5 -4.5h-332q-7 0 -11.5 4.5t-4.5 10.5v276l146 146h729z" />
    <glyph glyph-name="eight" unicode="8" 
d="M562 547v109h-149v-109h149zM562 219v109h-149v-109h149zM196 875h714q6 0 10.5 -4.5t4.5 -10.5v-714l-146 -146h-713q-7 0 -11.5 4.5t-4.5 11.5v713z" />
    <glyph glyph-name="nine" unicode="9" 
d="M413 656v-109h149v109h-149zM50 859q0 7 4.5 11.5t11.5 4.5h713l146 -146v-583l-146 -146h-713q-7 0 -11.5 4.5t-4.5 11.5v187q0 7 4.5 11.5t11.5 4.5h496v109h-496q-7 0 -11.5 5t-4.5 11v515z" />
    <glyph glyph-name="colon" unicode=":" horiz-adv-x="269" 
d="M253 635q7 0 11.5 -4.5t4.5 -11.5v-188q0 -6 -4.5 -10.5t-11.5 -4.5h-187q-7 0 -11.5 4.5t-4.5 10.5v188q0 7 4.5 11.5t11.5 4.5h187zM253 219q7 0 11.5 -4.5t4.5 -11.5v-187q0 -7 -4.5 -11.5t-11.5 -4.5h-187q-7 0 -11.5 4.5t-4.5 11.5v187q0 7 4.5 11.5t11.5 4.5h187z
" />
    <glyph glyph-name="semicolon" unicode=";" horiz-adv-x="269" 
d="M50 -133v350q0 6 5 10.5t11 4.5h188q6 0 10.5 -4.5t4.5 -10.5v-204l-146 -146h-73zM253 647q7 0 11.5 -4.5t4.5 -10.5v-188q0 -6 -4.5 -11t-11.5 -5h-187q-7 0 -11.5 5t-4.5 11v188q0 6 4.5 10.5t11.5 4.5h187z" />
    <glyph glyph-name="less" unicode="&#x3c;" horiz-adv-x="726" 
d="M715 200q6 -3 8 -8.5t-1 -11.5l-82 -169q-3 -6 -9 -8t-12 1l-560 273q-9 5 -9 14v166q0 10 9 14l560 274q6 2 12 0t9 -8l82 -168q3 -6 1 -12t-8 -9l-356 -174z" />
    <glyph glyph-name="equal" unicode="=" horiz-adv-x="907" 
d="M891 219q7 0 11.5 -4.5t4.5 -11.5v-188q0 -6 -4.5 -10.5t-11.5 -4.5h-231h-364h-230q-7 0 -11.5 4.5t-4.5 11.5v187q0 7 4.5 11.5t11.5 4.5h230h364h231zM891 719q7 0 11.5 -4.5t4.5 -11.5v-187q0 -7 -4.5 -11.5t-11.5 -4.5h-231h-364h-230q-7 0 -11.5 4.5t-4.5 11.5v187
q0 7 4.5 11.5t11.5 4.5h230h364h231z" />
    <glyph glyph-name="greater" unicode="&#x3e;" horiz-adv-x="726" 
d="M58 200l356 174l-356 174q-6 3 -8 9t1 12l82 168q3 6 9 8t12 0l560 -274q9 -4 9 -14v-166q0 -9 -9 -14l-560 -273q-6 -3 -12 -1t-9 8l-82 169q-3 6 -1 11.5t8 8.5z" />
    <glyph glyph-name="question" unicode="?" horiz-adv-x="581" 
d="M565 875q7 0 11.5 -5t4.5 -11v-188v-311q0 -7 -4.5 -11.5t-11.5 -4.5h-187q-7 0 -11.5 4.5t-4.5 11.5v296h-296q-7 0 -11.5 4.5t-4.5 10.5v188q0 6 4.5 11t11.5 5h312h187zM565 219q7 0 11.5 -4.5t4.5 -11.5v-187q0 -7 -4.5 -11.5t-11.5 -4.5h-187q-7 0 -11.5 4.5
t-4.5 11.5v187q0 7 4.5 11.5t11.5 4.5h187z" />
    <glyph glyph-name="at" unicode="@" horiz-adv-x="917" 
d="M917 706l-112 -103v-130q0 -3 -2.5 -5.5t-5.5 -2.5h-172q-3 0 -5.5 2.5t-2.5 5.5v130l-112 103v164q0 3 2 5t5 2h154q3 0 5 -2t2 -5v-199h78v199q0 3 2 5t5 2h152q3 0 5 -2t2 -5v-164zM917 241l-112 -103v-130q0 -3 -2.5 -5t-5.5 -2h-172q-3 0 -5.5 2t-2.5 5v130
l-112 103v164q0 3 2 5t5 2h154q3 0 5 -2t2 -5v-199h78v199q0 3 2 5t5 2h152q3 0 5 -2t2 -5v-164zM462 870v-88q0 -3 -2 -5.5t-5 -2.5h-197v-103h-200q-3 0 -5 2t-2 5v131l82 68h322q3 0 5 -2t2 -5zM51 473v88q0 3 2 5t5 2h201v103h196q3 0 5 -2t2 -5v-130l-82 -69h-322
q-3 0 -5 2.5t-2 5.5zM222 172h234q3 0 5 -2t2 -5v-89q0 -3 -2 -5t-5 -2h-234v-62q0 -3 -2 -5t-5 -2h-158q-3 0 -5 2t-2 5v337l69 69h337q3 0 5 -2t2 -5v-89q0 -3 -2 -5t-5 -2h-234v-138z" />
    <glyph glyph-name="A" unicode="A" 
d="M413 437h149v219h-149v-219zM779 875l146 -146v-714q0 -6 -4.5 -10.5t-10.5 -4.5h-333q-6 0 -10.5 4.5t-4.5 10.5v204h-149v-204q0 -6 -4.5 -10.5t-10.5 -4.5h-333q-6 0 -10.5 4.5t-4.5 10.5v714l146 146h583z" />
    <glyph glyph-name="B" unicode="B" 
d="M562 546v110h-149v-110h149zM562 219v109h-149v-109h149zM196 875h714q6 0 10.5 -4.5t4.5 -11.5v-313l-109 -109l109 -109v-313q0 -6 -4.5 -10.5t-10.5 -4.5h-845q-6 0 -10.5 4.5t-4.5 10.5v714z" />
    <glyph glyph-name="C" unicode="C" 
d="M196 0l-146 146v583l146 146h714q6 0 10.5 -4.5t4.5 -11.5v-187q0 -7 -4.5 -11.5t-10.5 -4.5h-495v-437h495q6 0 10.5 -4.5t4.5 -11.5v-188q0 -6 -4.5 -10.5t-10.5 -4.5h-714z" />
    <glyph glyph-name="D" unicode="D" 
d="M564 219v437h-149v-437h149zM779 875l146 -146v-583l-146 -146h-714q-6 0 -10.5 4.5t-4.5 10.5v844q0 7 4.5 11.5t10.5 4.5h714z" />
    <glyph glyph-name="E" unicode="E" horiz-adv-x="921" 
d="M195 873h711q6 0 10.5 -4.5t4.5 -11.5v-186q0 -6 -4.5 -10.5t-10.5 -5.5h-494v-108l494 -1q6 0 10.5 -4.5t4.5 -10.5v-187q0 -6 -4.5 -10.5t-10.5 -4.5h-494v-109h494q6 0 10.5 -5t4.5 -11v-187q0 -6 -4.5 -10.5t-10.5 -4.5h-711l-145 145v581z" />
    <glyph glyph-name="F" unicode="F" horiz-adv-x="927" 
d="M415 363h497q6 0 10.5 -4.5t4.5 -10.5v-188q0 -7 -4.5 -11.5t-10.5 -4.5h-497v-131q0 -6 -4.5 -10.5t-10.5 -4.5h-334q-7 0 -11.5 4.5t-4.5 10.5v716l146 146h716q6 0 10.5 -4.5t4.5 -11.5v-188q0 -6 -4.5 -10.5t-10.5 -4.5h-497v-293z" />
    <glyph glyph-name="G" unicode="G" 
d="M415 219h149v203q0 6 4.5 11t11.5 5h330q6 0 10.5 -5t4.5 -11v-407q0 -6 -4.5 -10.5t-10.5 -4.5h-714l-146 146v583l146 146h714q6 0 10.5 -4.5t4.5 -10.5v-188q0 -7 -4.5 -11.5t-10.5 -4.5h-495v-437z" />
    <glyph glyph-name="H" unicode="H" horiz-adv-x="924" 
d="M924 859v-843q0 -7 -4.5 -11.5t-10.5 -4.5h-333q-6 0 -10.5 4.5t-5.5 11.5l1 206h-147v-206q0 -7 -4.5 -11.5t-11.5 -4.5h-332q-7 0 -11.5 4.5t-4.5 11.5v713l146 146h218v-437h146v421q0 7 5 11.5t11 4.5h333q6 0 10.5 -4.5t4.5 -11.5z" />
    <glyph glyph-name="I" unicode="I" horiz-adv-x="414" 
d="M66 0q-7 0 -11.5 4.5t-4.5 11.5v843q0 7 4.5 11.5t11.5 4.5h332q7 0 11.5 -4.5t4.5 -11.5v-843q0 -7 -4.5 -11.5t-11.5 -4.5h-332z" />
    <glyph glyph-name="J" unicode="J" horiz-adv-x="926" 
d="M65 438h330q7 0 11.5 -5t4.5 -11v-203h151l1 641q0 6 4.5 10.5t10.5 4.5h333q6 0 10.5 -4.5t4.5 -10.5v-714l-146 -146h-584l-146 145v74v203q0 6 4.5 11t10.5 5z" />
    <glyph glyph-name="K" unicode="K" horiz-adv-x="924" 
d="M924 510l-144 -144l144 -83v-268q0 -6 -4.5 -10.5t-10.5 -4.5h-333q-6 0 -10.5 4.5t-4.5 10.5v350h-147v-350q0 -6 -4.5 -10.5t-11.5 -4.5h-333q-6 0 -10.5 4.5t-4.5 10.5v845q0 6 4.5 10.5t10.5 4.5h333q7 0 11.5 -4.5t4.5 -10.5v-277h147v277q0 6 4.5 10.5t10.5 4.5
h333q6 0 10.5 -4.5t4.5 -10.5v-350v0z" />
    <glyph glyph-name="L" unicode="L" horiz-adv-x="926" 
d="M926 203l-1 -188q0 -6 -4.5 -10.5t-10.5 -4.5h-714l-146 146v714q0 6 4.5 10.5t10.5 4.5h333q6 0 10.5 -4.5t4.5 -10.5l2 -641h496q6 0 10.5 -4.5t4.5 -11.5z" />
    <glyph glyph-name="M" unicode="M" 
d="M925 729v-713q0 -7 -4.5 -11.5t-11.5 -4.5h-187q-6 0 -10.5 4.5t-4.5 11.5l-1 643h-109v-643q0 -7 -4.5 -11.5t-11.5 -4.5h-187q-6 0 -11 4.5t-5 11.5v643h-109v-643q0 -7 -4.5 -11.5t-11.5 -4.5h-187q-7 0 -11.5 4.5t-4.5 11.5v713l146 146h583z" />
    <glyph glyph-name="N" unicode="N" 
d="M925 700v-685q0 -6 -4.5 -10.5t-10.5 -4.5h-333q-6 0 -10.5 4.5t-4.5 10.5v641h-149v-641q0 -6 -4.5 -10.5t-10.5 -4.5h-333q-6 0 -10.5 4.5t-4.5 10.5v685l146 175h583z" />
    <glyph glyph-name="O" unicode="O" 
d="M564 219v437h-148v-437h148zM779 875l146 -146v-714q0 -6 -4.5 -10.5t-10.5 -4.5h-714l-146 146v714q0 6 4.5 10.5t10.5 4.5h714z" />
    <glyph glyph-name="P" unicode="P" 
d="M564 365v291h-149v-291h149zM196 875h714q6 0 10.5 -4.5t4.5 -10.5v-568l-146 -146h-364v-131q0 -6 -4.5 -10.5t-11.5 -4.5h-334q-6 0 -10.5 4.5t-4.5 10.5v714z" />
    <glyph glyph-name="Q" unicode="Q" horiz-adv-x="928" 
d="M418 656v-439h148v439h-148zM782 875l146 -146v-716q0 -7 -4.5 -11.5t-11.5 -4.5h-241v-74l-146 -146h-203q-6 0 -10.5 4.5t-4.5 10.5v205h-111l-146 146v716q0 7 4.5 11.5t11.5 4.5h716z" />
    <glyph glyph-name="R" unicode="R" horiz-adv-x="927" 
d="M564 438v218h-149v-218h149zM782 218l145 -82v-120q0 -7 -4.5 -11.5t-11.5 -4.5h-332q-6 0 -10.5 4.5t-4.5 10.5v204h-149v-204q0 -6 -4.5 -10.5t-11.5 -4.5h-334q-6 0 -10.5 4.5t-4.5 10.5v714l146 146h714q6 0 10.5 -4.5t4.5 -10.5v-495z" />
    <glyph glyph-name="S" unicode="S" 
d="M925 860v-188q0 -7 -4.5 -11.5t-10.5 -4.5h-420v-219h-425q-6 0 -10.5 4.5t-4.5 11.5v276l175 146h685q6 0 10.5 -4.5t4.5 -10.5zM50 15v188q0 7 4.5 11.5t10.5 4.5h427v219h418q6 0 10.5 -4.5t4.5 -11.5v-276l-175 -146h-685q-6 0 -10.5 4.5t-4.5 10.5z" />
    <glyph glyph-name="T" unicode="T" horiz-adv-x="902" 
d="M902 730v-74h-244v-640q0 -7 -4.5 -11.5t-10.5 -4.5h-333q-7 0 -11.5 4.5t-4.5 11.5v640h-244v74l146 146h561z" />
    <glyph glyph-name="U" unicode="U" 
d="M779 875l146 -145v-714q0 -7 -4.5 -11.5t-10.5 -4.5h-714l-146 146v714q0 6 4.5 10.5t10.5 4.5h336q6 0 10.5 -4.5t4.5 -10.5v-641h148v641q0 6 4.5 10.5t11.5 4.5h199z" />
    <glyph glyph-name="V" unicode="V" 
d="M925 219l-238 -219h-398l-239 219v641q0 6 4.5 10.5t10.5 4.5h327q6 0 10.5 -4.5t4.5 -10.5v-638h165v638q0 6 4.5 10.5t10.5 4.5h323q6 0 10.5 -4.5t4.5 -10.5v-641v0z" />
    <glyph glyph-name="W" unicode="W" 
d="M925 146l-146 -146h-583l-146 146v714q0 6 4.5 10.5t11.5 4.5h187q7 0 11.5 -4.5t4.5 -10.5v-644h109v644q0 6 5 10.5t11 4.5h187q7 0 11.5 -4.5t4.5 -10.5v-644h109l1 644q0 6 4.5 10.5t10.5 4.5h187q7 0 11.5 -4.5t4.5 -10.5v-714z" />
    <glyph glyph-name="X" unicode="X" 
d="M925 656l-239 -218l239 -219v0v0v-204q0 -6 -4.5 -10.5t-11.5 -4.5h-322q-6 0 -10.5 4.5t-4.5 10.5v200h-165v-200q0 -6 -4.5 -10.5t-11.5 -4.5h-326q-6 0 -10.5 4.5t-4.5 10.5v204l239 218v1v0l-239 218v204q0 6 4.5 10.5t10.5 4.5h326q7 0 11.5 -4.5t4.5 -10.5v-200
h165v200q0 6 4.5 10.5t10.5 4.5h322q7 0 11.5 -4.5t4.5 -10.5v-204z" />
    <glyph glyph-name="Y" unicode="Y" 
d="M925 510l-239 -218v-277q0 -6 -4.5 -10.5t-10.5 -4.5h-367q-6 0 -10.5 4.5t-4.5 10.5v277l-239 218v350q0 6 4.5 10.5t10.5 4.5h326q7 0 11.5 -4.5t4.5 -10.5v-422h165v422q0 6 4.5 10.5t10.5 4.5h323q6 0 10.5 -4.5t4.5 -10.5v-350z" />
    <glyph glyph-name="Z" unicode="Z" 
d="M65 875h685l175 -146v-276q0 -7 -4.5 -11.5t-10.5 -4.5h-425v220h-420q-6 0 -10.5 4.5t-4.5 10.5v188q0 6 4.5 10.5t10.5 4.5zM910 0h-684l-176 146v277q0 6 4.5 10.5t10.5 4.5h418v-219h427q6 0 10.5 -4.5t4.5 -11.5v-188q0 -6 -4.5 -10.5t-10.5 -4.5z" />
    <glyph glyph-name="bracketleft" unicode="[" horiz-adv-x="926" 
d="M911 219q6 0 10.5 -4.5t4.5 -11.5l-1 -188q0 -6 -4.5 -10.5t-10.5 -4.5h-714l-146 146v908l146 146h714q6 0 10.5 -4.5t4.5 -11.5l1 -188q0 -6 -4.5 -10.5t-10.5 -4.5h-496v-762h496z" />
    <glyph glyph-name="backslash" unicode="\" horiz-adv-x="510" 
d="M268 841l66 -231l105 -364l66 -230q2 -7 -1.5 -11.5t-9.5 -4.5h-188q-6 0 -12 4.5t-8 11.5l-66 230l-104 364l-67 231q-1 7 2 11.5t9 4.5h188q7 0 12.5 -4.5t7.5 -11.5z" />
    <glyph glyph-name="bracketright" unicode="]" horiz-adv-x="926" 
d="M66 219h496v762h-496q-7 0 -11.5 4.5t-4.5 10.5l1 188q0 7 4.5 11.5t11.5 4.5h713l146 -146v-908l-146 -146h-713q-7 0 -11.5 4.5t-4.5 10.5l-1 188q0 7 4.5 11.5t11.5 4.5z" />
    <glyph glyph-name="underscore" unicode="_" horiz-adv-x="631" 
d="M631 -185q0 -6 -4.5 -10.5t-11.5 -4.5h-203v0h-346q-7 0 -11.5 4.5t-4.5 10.5v84q0 6 4.5 11t11.5 5h346v-1h203q7 0 11.5 -4.5t4.5 -10.5v-84z" />
    <glyph glyph-name="a" unicode="a" 
d="M413 438v-1h149v219h-149v-218zM779 875l146 -146v-713q0 -7 -4.5 -11.5t-10.5 -4.5h-333q-6 0 -10.5 4.5t-4.5 11.5v203h-149v-203q0 -7 -4.5 -11.5t-10.5 -4.5h-333q-6 0 -10.5 4.5t-4.5 11.5v713l146 146h583z" />
    <glyph glyph-name="b" unicode="b" 
d="M562 547v109h-149v-109h149zM562 219v109h-149v-109h149zM196 875h714q6 0 10.5 -4.5t4.5 -10.5v-313l-109 -110l109 -109v-313q0 -6 -4.5 -10.5t-10.5 -4.5h-845q-6 0 -10.5 4.5t-4.5 10.5v714z" />
    <glyph glyph-name="c" unicode="c" 
d="M196 0l-146 146v583l146 146h714q6 0 10.5 -4.5t4.5 -10.5v-188q0 -7 -4.5 -11.5t-10.5 -4.5h-495v-437h495q6 0 10.5 -4.5t4.5 -11.5v-188q0 -6 -4.5 -10.5t-10.5 -4.5h-714z" />
    <glyph glyph-name="d" unicode="d" 
d="M564 219v437h-149v-437h149zM779 875l146 -146v-583l-146 -146h-714q-6 0 -10.5 4.5t-4.5 10.5v845q0 6 4.5 10.5t10.5 4.5h714z" />
    <glyph glyph-name="e" unicode="e" horiz-adv-x="921" 
d="M195 873h711q6 0 10.5 -4.5t4.5 -11.5v-186q0 -6 -4.5 -10.5t-10.5 -4.5l-494 -1v-108l494 -1q6 0 10.5 -4.5t4.5 -10.5v-187q0 -6 -4.5 -10.5t-10.5 -4.5h-494v-109h494q6 0 10.5 -4.5t4.5 -11.5v-187q0 -6 -4.5 -10.5t-10.5 -4.5h-711l-145 145v581z" />
    <glyph glyph-name="f" unicode="f" horiz-adv-x="927" 
d="M415 364h497q6 0 10.5 -4.5t4.5 -10.5v-188q0 -7 -4.5 -11.5t-10.5 -4.5h-497v-131q0 -6 -4.5 -10.5t-10.5 -4.5h-334q-7 0 -11.5 4.5t-4.5 10.5v716l146 146h716q6 0 10.5 -4.5t4.5 -10.5v-189q0 -6 -4.5 -10.5t-10.5 -4.5h-497v-293z" />
    <glyph glyph-name="g" unicode="g" 
d="M415 219h149v203q0 6 4.5 10.5t11.5 4.5h330q6 0 10.5 -4.5t4.5 -10.5v-407q0 -6 -4.5 -10.5t-10.5 -4.5h-714l-146 146v583l146 146h714q6 0 10.5 -4.5t4.5 -10.5v-188q0 -7 -4.5 -11.5t-10.5 -4.5h-495v-437z" />
    <glyph glyph-name="h" unicode="h" horiz-adv-x="924" 
d="M924 859v-843q0 -7 -4.5 -11.5t-10.5 -4.5h-333q-6 0 -10.5 4.5t-5.5 11.5l1 206h-147v-206q0 -7 -4.5 -11.5t-11.5 -4.5h-332q-7 0 -11.5 4.5t-4.5 11.5v713l146 146h202q7 0 11.5 -4.5t4.5 -11.5v-422h146v422q0 7 5 11.5t11 4.5h333q6 0 10.5 -4.5t4.5 -11.5z" />
    <glyph glyph-name="i" unicode="i" horiz-adv-x="414" 
d="M66 0q-7 0 -11.5 4.5t-4.5 11.5v843q0 7 4.5 11.5t11.5 4.5h332q7 0 11.5 -4.5t4.5 -11.5v-843q0 -7 -4.5 -11.5t-11.5 -4.5h-332z" />
    <glyph glyph-name="j" unicode="j" horiz-adv-x="926" 
d="M65 438h330q7 0 11.5 -5t4.5 -11v-203h151l1 641q0 6 4.5 10.5t10.5 4.5h333q6 0 10.5 -4.5t4.5 -10.5v-714l-146 -146h-584l-146 146v73v203q0 6 4.5 11t10.5 5z" />
    <glyph glyph-name="k" unicode="k" horiz-adv-x="924" 
d="M924 510l-144 -144l144 -83v-267q0 -7 -4.5 -11.5t-10.5 -4.5h-333q-6 0 -10.5 4.5t-4.5 11.5v349h-147v-349q0 -7 -4.5 -11.5t-11.5 -4.5h-333q-6 0 -10.5 4.5t-4.5 11.5v844q0 6 4.5 10.5t10.5 4.5h333q7 0 11.5 -4.5t4.5 -10.5v-277h147v277q0 6 4.5 10.5t10.5 4.5
h333q6 0 10.5 -4.5t4.5 -10.5v-350v0z" />
    <glyph glyph-name="l" unicode="l" horiz-adv-x="926" 
d="M926 203l-1 -188q0 -6 -4.5 -10.5t-10.5 -4.5h-714l-146 146v714q0 6 4.5 10.5t10.5 4.5h333q6 0 10.5 -4.5t4.5 -10.5l2 -641h496q6 0 10.5 -4.5t4.5 -11.5z" />
    <glyph glyph-name="m" unicode="m" 
d="M925 729v-713q0 -7 -4.5 -11.5t-11.5 -4.5h-187q-6 0 -10.5 4.5t-4.5 11.5l-1 643h-109v-643q0 -7 -4.5 -11.5t-11.5 -4.5h-187q-6 0 -11 4.5t-5 11.5v643h-109v-643q0 -7 -4.5 -11.5t-11.5 -4.5h-187q-7 0 -11.5 4.5t-4.5 11.5v713l146 146h583z" />
    <glyph glyph-name="n" unicode="n" 
d="M925 700v-685q0 -6 -4.5 -10.5t-10.5 -4.5h-333q-6 0 -10.5 4.5t-4.5 10.5v641h-149v-641q0 -6 -4.5 -10.5t-10.5 -4.5h-333q-6 0 -10.5 4.5t-4.5 10.5v685l146 175h583z" />
    <glyph glyph-name="o" unicode="o" 
d="M564 219v437h-148v-437h148zM779 875l146 -146v-713q0 -7 -4.5 -11.5t-10.5 -4.5h-714l-146 146v714q0 6 4.5 10.5t10.5 4.5h714z" />
    <glyph glyph-name="p" unicode="p" 
d="M564 365v291h-149v-291h149zM196 875h714q6 0 10.5 -4.5t4.5 -10.5v-568l-146 -146h-364v-130q0 -7 -4.5 -11.5t-11.5 -4.5h-334q-6 0 -10.5 4.5t-4.5 11.5v713z" />
    <glyph glyph-name="q" unicode="q" horiz-adv-x="928" 
d="M418 656v-439h148v439h-148zM782 875l146 -146v-716q0 -7 -4.5 -11.5t-11.5 -4.5h-241v-74l-146 -146h-203q-6 0 -10.5 4.5t-4.5 10.5v205h-111l-146 147v716q0 6 4.5 10.5t11.5 4.5h716z" />
    <glyph glyph-name="r" unicode="r" horiz-adv-x="927" 
d="M564 436v219h-149v-219h149zM782 217l145 -83v-120q0 -6 -4.5 -10.5t-11.5 -4.5h-332q-6 0 -10.5 4.5t-4.5 10.5v203h-149v-203q0 -6 -4.5 -10.5t-11.5 -4.5h-334q-6 0 -10.5 4.5t-4.5 10.5v714l146 146h714q6 0 10.5 -4.5t4.5 -11.5v-495z" />
    <glyph glyph-name="s" unicode="s" 
d="M925 858v-188q0 -6 -4.5 -10.5t-10.5 -4.5h-420v-219h-425q-6 0 -10.5 4.5t-4.5 10.5v277l175 146h685q6 0 10.5 -4.5t4.5 -11.5zM50 14v188q0 6 4.5 10.5t10.5 4.5h427v220h418q6 0 10.5 -5t4.5 -11v-277l-175 -145h-685q-6 0 -10.5 4.5t-4.5 10.5z" />
    <glyph glyph-name="t" unicode="t" horiz-adv-x="902" 
d="M902 728v-74h-244v-640q0 -7 -4.5 -11.5t-10.5 -4.5h-333q-7 0 -11.5 4.5t-4.5 11.5v640h-244v74l146 145h561z" />
    <glyph glyph-name="u" unicode="u" 
d="M779 875l146 -146v-713q0 -7 -4.5 -11.5t-10.5 -4.5h-714l-146 146v714q0 6 4.5 10.5t10.5 4.5h336q6 0 10.5 -4.5t4.5 -10.5v-641h148v641q0 6 4.5 10.5t11.5 4.5h199z" />
    <glyph glyph-name="v" unicode="v" 
d="M925 219v-1v1l-238 -219h-398l-239 219v641q0 6 4.5 10.5t10.5 4.5h327q6 0 10.5 -4.5t4.5 -10.5v-638h165v638q0 6 4.5 10.5t10.5 4.5h323q6 0 10.5 -4.5t4.5 -10.5v-641v0z" />
    <glyph glyph-name="w" unicode="w" 
d="M925 146l-146 -146h-583l-146 146v713q0 7 4.5 11.5t11.5 4.5h187q7 0 11.5 -4.5t4.5 -11.5v-643h109v643q0 7 5 11.5t11 4.5h187q7 0 11.5 -4.5t4.5 -11.5v-643h109l1 643q0 7 4.5 11.5t10.5 4.5h187q7 0 11.5 -4.5t4.5 -11.5v-713z" />
    <glyph glyph-name="x" unicode="x" 
d="M925 656l-239 -219l239 -218v0v0v-204q0 -6 -4.5 -10.5t-11.5 -4.5h-322q-6 0 -10.5 4.5t-4.5 10.5v200h-165v-200q0 -6 -4.5 -10.5t-11.5 -4.5h-326q-6 0 -10.5 4.5t-4.5 10.5v204l239 218v0v0l-239 219v203q0 7 4.5 11.5t10.5 4.5h326q7 0 11.5 -4.5t4.5 -11.5v-199
h165v199q0 7 4.5 11.5t10.5 4.5h322q7 0 11.5 -4.5t4.5 -11.5v-203z" />
    <glyph glyph-name="y" unicode="y" 
d="M925 510l-239 -218v-277q0 -6 -4.5 -10.5t-10.5 -4.5h-367q-6 0 -10.5 4.5t-4.5 10.5v277l-239 218v349q0 7 4.5 11.5t10.5 4.5h326q7 0 11.5 -4.5t4.5 -11.5v-422h165v422q0 7 4.5 11.5t10.5 4.5h323q6 0 10.5 -4.5t4.5 -11.5v-349z" />
    <glyph glyph-name="z" unicode="z" 
d="M65 875h685l175 -146v-277q0 -6 -4.5 -10.5t-10.5 -4.5h-425v219h-420q-6 0 -10.5 4.5t-4.5 11.5v188q0 6 4.5 10.5t10.5 4.5zM910 0h-684l-176 146v276q0 7 4.5 11.5t10.5 4.5h418v-219h427q6 0 10.5 -5t4.5 -11v-188q0 -6 -4.5 -10.5t-10.5 -4.5z" />
    <glyph glyph-name="braceleft" unicode="{" horiz-adv-x="1291" 
d="M1275 219q7 0 11.5 -4.5t4.5 -11.5l-1 -188q0 -6 -4.5 -10.5t-11.5 -4.5h-714l-145 146v374h-349q-7 0 -11.5 4.5t-4.5 10.5v188q0 6 4.5 10.5t11.5 4.5h349v316l145 146h714q7 0 11.5 -4.5t4.5 -11.5l1 -188q0 -6 -4.5 -10.5t-11.5 -4.5h-496v-762h496z" />
    <glyph glyph-name="braceright" unicode="}" horiz-adv-x="1291" 
d="M66 219h496v762h-496q-7 0 -11.5 4.5t-4.5 10.5l1 188q0 7 4.5 11.5t11.5 4.5h713l146 -146v-316h349q7 0 11.5 -4.5t4.5 -10.5v-188q0 -6 -4.5 -10.5t-11.5 -4.5h-349v-374l-146 -146h-713q-7 0 -11.5 4.5t-4.5 10.5l-1 188q0 7 4.5 11.5t11.5 4.5z" />
    <glyph glyph-name="asciitilde" unicode="~" horiz-adv-x="699" 
d="M683 1167q7 0 11.5 -5t4.5 -11v-188q0 -6 -4.5 -10.5t-11.5 -4.5h-617q-7 0 -11.5 4.5t-4.5 10.5v188q0 6 4.5 11t11.5 5h617z" />
    <glyph glyph-name="uni00A0" unicode="&#xa0;" horiz-adv-x="462" 
 />
    <glyph glyph-name="AE" unicode="&#xc6;" horiz-adv-x="1485" 
d="M614 437v219h-149v-218v-1h149zM1469 656l-492 -1v-108l492 -1q7 0 11.5 -4.5t4.5 -10.5v-187q0 -6 -4.5 -10.5t-11.5 -4.5h-492v-109h492q7 0 11.5 -4.5t4.5 -11.5v-187q0 -7 -4.5 -11.5t-11.5 -4.5h-710l-145 145v73h-149v-204q0 -6 -4.5 -10.5t-10.5 -4.5h-333
q-6 0 -10.5 4.5t-4.5 10.5l-52 714l146 146h1273q7 0 11.5 -4.5t4.5 -11.5v-188q0 -6 -4.5 -10.5t-11.5 -4.5z" />
    <glyph glyph-name="multiply" unicode="&#xd7;" horiz-adv-x="838" 
d="M651 322l176 -149q5 -4 6 -10.5t-4 -11.5l-120 -144q-5 -5 -11 -5.5t-11 4.5l-177 148l-69 58l-69 -58l-177 -148q-5 -5 -11 -4.5t-11 5.5l-120 144q-5 5 -4.5 11.5t5.5 10.5l177 149l40 33l-40 33l-177 148q-5 5 -5.5 11t4.5 11l120 144q5 5 11 5.5t11 -3.5l177 -149
l69 -58l69 58l177 149q5 4 11 3.5t11 -5.5l120 -144q5 -5 4 -11t-5 -11l-177 -148l-40 -33z" />
    <glyph glyph-name="ae" unicode="&#xe6;" horiz-adv-x="1485" 
d="M614 437v219h-149v-218v-1h149zM1469 656l-492 -1v-108l492 -1q7 0 11.5 -4.5t4.5 -10.5v-187q0 -6 -4.5 -10.5t-11.5 -4.5h-492v-109h492q7 0 11.5 -4.5t4.5 -11.5v-187q0 -7 -4.5 -11.5t-11.5 -4.5h-710l-145 145v73h-149v-204q0 -6 -4.5 -10.5t-10.5 -4.5h-333
q-6 0 -10.5 4.5t-4.5 10.5l-52 714l146 146h1273q7 0 11.5 -4.5t4.5 -11.5v-188q0 -6 -4.5 -10.5t-11.5 -4.5z" />
    <glyph glyph-name="divide" unicode="&#xf7;" horiz-adv-x="907" 
d="M891 557q7 0 11.5 -4.5t4.5 -10.5v-188q0 -6 -4.5 -10.5t-11.5 -4.5h-231h-364h-230q-7 0 -11.5 4.5t-4.5 10.5v188q0 6 4.5 10.5t11.5 4.5h230h364h231zM296 16v197q0 6 5 10.5t11 4.5h333q6 0 10.5 -4.5t4.5 -10.5v-197q0 -7 -4.5 -11.5t-10.5 -4.5h-333q-6 0 -11 4.5
t-5 11.5zM660 859v-176q0 -6 -4.5 -10.5t-10.5 -4.5h-333q-6 0 -11 4.5t-5 10.5v176q0 7 5 11.5t11 4.5h333q6 0 10.5 -4.5t4.5 -11.5z" />
    <glyph glyph-name="quoteleft" unicode="&#x2018;" horiz-adv-x="269" 
d="M269 868v-349q0 -7 -4.5 -11.5t-11.5 -4.5h-187q-7 0 -11.5 4.5t-4.5 11.5v203l146 146h73z" />
    <glyph glyph-name="quoteright" unicode="&#x2019;" horiz-adv-x="269" 
d="M50 489v349q0 7 4.5 11.5t11.5 4.5h187q7 0 11.5 -4.5t4.5 -11.5v-203l-146 -146h-73z" />
    <glyph glyph-name="quotedblleft" unicode="&#x201c;" horiz-adv-x="581" 
d="M581 897v-350q0 -6 -4.5 -10.5t-11.5 -4.5h-187q-7 0 -11.5 4.5t-4.5 10.5v204l146 146h73zM269 897v-350q0 -6 -4.5 -10.5t-11.5 -4.5h-187q-7 0 -11.5 4.5t-4.5 10.5v204l146 146h73z" />
    <glyph glyph-name="quotedblright" unicode="&#x201d;" horiz-adv-x="581" 
d="M50 518v349q0 6 4.5 10.5t11.5 4.5h187q7 0 11.5 -4.5t4.5 -10.5v-204l-146 -145h-73zM362 518v-1v350q0 6 4.5 10.5t11.5 4.5h187q7 0 11.5 -4.5t4.5 -10.5v-204l-146 -145h-73z" />
    <glyph glyph-name="glyph103" horiz-adv-x="0" 
d="M116 1132h816l8 -4q-96 -224 -116 -252h-824q103 256 116 256zM1192 1132h428q8 -1 8 -8q-46 -38 -748 -672h-8v356q249 259 320 324zM520 808h300q8 -1 8 -8v-792q0 -8 -8 -8h-820q72 251 96 292h416v508q1 8 8 8zM1100 596q4 0 540 -592l-8 -4h-384l-372 396v4
q29 33 224 196z" />
  </font>
</defs>
</svg>
